<svg width="37" height="38" viewBox="0 0 37 38" fill="none" xmlns="http://www.w3.org/2000/svg">
<path d="M18.375 10.375C16.6691 10.375 15.0016 10.8808 13.5832 11.8286C12.1648 12.7763 11.0593 14.1233 10.4065 15.6994C9.75373 17.2754 9.58293 19.0096 9.91573 20.6827C10.2485 22.3557 11.07 23.8926 12.2762 25.0988C13.4824 26.305 15.0193 27.1265 16.6923 27.4593C18.3654 27.7921 20.0996 27.6213 21.6756 26.9685C23.2517 26.3157 24.5987 25.2102 25.5464 23.7918C26.4942 22.3734 27 20.7059 27 19C27 16.7125 26.0913 14.5187 24.4738 12.9012C22.8563 11.2837 20.6625 10.375 18.375 10.375ZM18.375 25.375C17.1141 25.375 15.8816 25.0011 14.8332 24.3006C13.7849 23.6001 12.9678 22.6045 12.4853 21.4396C12.0028 20.2747 11.8765 18.9929 12.1225 17.7563C12.3685 16.5197 12.9756 15.3838 13.8672 14.4922C14.7588 13.6006 15.8947 12.9935 17.1313 12.7475C18.3679 12.5015 19.6497 12.6278 20.8146 13.1103C21.9795 13.5928 22.9751 14.4099 23.6756 15.4582C24.3761 16.5066 24.75 17.7391 24.75 19C24.7451 20.6892 24.0718 22.3079 22.8773 23.5023C21.6829 24.6968 20.0642 25.3701 18.375 25.375ZM26.625 0.625H10.125C7.43968 0.625 4.86435 1.69174 2.96554 3.59054C1.06674 5.48935 0 8.06468 0 10.75V27.25C0 29.9353 1.06674 32.5106 2.96554 34.4095C4.86435 36.3083 7.43968 37.375 10.125 37.375H26.625C29.3103 37.375 31.8856 36.3083 33.7845 34.4095C35.6833 32.5106 36.75 29.9353 36.75 27.25V10.75C36.75 8.06468 35.6833 5.48935 33.7845 3.59054C31.8856 1.69174 29.3103 0.625 26.625 0.625ZM34.5 27.25C34.5 29.3386 33.6703 31.3416 32.1935 32.8185C30.7166 34.2953 28.7136 35.125 26.625 35.125H10.125C8.03642 35.125 6.03338 34.2953 4.55653 32.8185C3.07968 31.3416 2.25 29.3386 2.25 27.25V10.75C2.25 8.66142 3.07968 6.65838 4.55653 5.18153C6.03338 3.70468 8.03642 2.875 10.125 2.875H26.625C28.7136 2.875 30.7166 3.70468 32.1935 5.18153C33.6703 6.65838 34.5 8.66142 34.5 10.75V27.25ZM30 9.25C30 9.62084 29.89 9.98335 29.684 10.2917C29.478 10.6 29.1851 10.8404 28.8425 10.9823C28.4999 11.1242 28.1229 11.1613 27.7592 11.089C27.3955 11.0166 27.0614 10.838 26.7992 10.5758C26.5369 10.3136 26.3584 9.97951 26.286 9.6158C26.2137 9.25208 26.2508 8.87508 26.3927 8.53247C26.5346 8.18986 26.775 7.89702 27.0833 7.69099C27.3916 7.48497 27.7542 7.375 28.125 7.375C28.6223 7.375 29.0992 7.57254 29.4508 7.92417C29.8025 8.27581 30 8.75272 30 9.25Z" fill="white"/>
</svg>
