<svg width="74" height="74" viewBox="0 0 74 74" fill="none" xmlns="http://www.w3.org/2000/svg">
<circle cx="37" cy="37" r="37" fill="#C0EDC2"/>
<path fill-rule="evenodd" clip-rule="evenodd" d="M28.517 24.535C29.6281 23.4156 30.9496 22.5269 32.4054 21.9203C33.8613 21.3136 35.4228 21.0008 37 21C40.18 21 43.232 22.27 45.483 24.535C47.7374 26.8062 49.0017 29.8769 49 33.077C49 38.603 45.936 43.605 42.744 47.298C41.3989 48.8467 39.9405 50.2934 38.381 51.626C37.9301 52.0128 37.4696 52.3882 37 52.752C36.5306 52.388 36.0701 52.0125 35.619 51.626C34.0595 50.2934 32.6011 48.8467 31.256 47.298C28.064 43.605 25 38.603 25 33.077C25 29.872 26.266 26.8 28.517 24.535ZM36.424 54.817L37 54L37.576 54.817C37.4073 54.9355 37.2062 54.9991 37 54.9991C36.7938 54.9991 36.5927 54.9355 36.424 54.817ZM36.424 54.817L37 54L37.576 54.817L37.58 54.815L37.59 54.808L37.62 54.785L37.738 54.7C37.838 54.626 37.984 54.518 38.168 54.376C38.536 54.094 39.058 53.679 39.681 53.146C41.3164 51.7481 42.8456 50.2306 44.256 48.606C47.564 44.78 51 39.319 51 33.076C51 29.346 49.526 25.766 46.902 23.126C45.605 21.8194 44.0625 20.7822 42.3631 20.0741C40.6637 19.366 38.841 19.0009 37 19C35.1591 19.0008 33.3364 19.3657 31.637 20.0736C29.9377 20.7815 28.3951 21.8186 27.098 23.125C24.4714 25.771 22.9982 29.3487 23 33.077C23 39.319 26.436 44.78 29.744 48.606C31.1544 50.2306 32.6836 51.7481 34.319 53.146C34.943 53.679 35.464 54.094 35.832 54.376C36.0125 54.5151 36.1948 54.6518 36.379 54.786L36.411 54.808L36.42 54.815L36.424 54.817ZM33 33C33 31.9391 33.4214 30.9217 34.1716 30.1716C34.9217 29.4214 35.9391 29 37 29C38.0609 29 39.0783 29.4214 39.8284 30.1716C40.5786 30.9217 41 31.9391 41 33C41 34.0609 40.5786 35.0783 39.8284 35.8284C39.0783 36.5786 38.0609 37 37 37C35.9391 37 34.9217 36.5786 34.1716 35.8284C33.4214 35.0783 33 34.0609 33 33ZM37 27C35.4087 27 33.8826 27.6321 32.7574 28.7574C31.6321 29.8826 31 31.4087 31 33C31 34.5913 31.6321 36.1174 32.7574 37.2426C33.8826 38.3679 35.4087 39 37 39C38.5913 39 40.1174 38.3679 41.2426 37.2426C42.3679 36.1174 43 34.5913 43 33C43 31.4087 42.3679 29.8826 41.2426 28.7574C40.1174 27.6321 38.5913 27 37 27Z" fill="black"/>
</svg>
