<svg width="74" height="74" viewBox="0 0 74 74" fill="none" xmlns="http://www.w3.org/2000/svg">
<circle cx="37" cy="37" r="37" fill="#EDC0ED"/>
<path d="M35.5 50.5H38.5M29.5 17.5H44.5C45.2956 17.5 46.0587 17.8161 46.6213 18.3787C47.1839 18.9413 47.5 19.7044 47.5 20.5V53.5C47.5 54.2956 47.1839 55.0587 46.6213 55.6213C46.0587 56.1839 45.2956 56.5 44.5 56.5H29.5C28.7044 56.5 27.9413 56.1839 27.3787 55.6213C26.8161 55.0587 26.5 54.2956 26.5 53.5V20.5C26.5 19.7044 26.8161 18.9413 27.3787 18.3787C27.9413 17.8161 28.7044 17.5 29.5 17.5Z" stroke="black" stroke-width="2" stroke-linecap="round" stroke-linejoin="round"/>
</svg>
