<svg width="270" height="56" viewBox="0 0 270 56" fill="none" xmlns="http://www.w3.org/2000/svg">
<path d="M83.432 52.024C82.84 52.024 82.44 51.872 82.232 51.568C82.024 51.264 81.92 50.928 81.92 50.56V33.976C81.92 33.208 82.384 32.824 83.312 32.824C84.272 32.824 84.752 33.208 84.752 33.976V49.6H92.768C93.344 49.6 93.632 49.992 93.632 50.776C93.664 51.608 93.376 52.024 92.768 52.024H83.432ZM99.2499 52C98.7539 52 98.2819 51.936 97.8339 51.808C97.3859 51.664 96.9539 51.464 96.5379 51.208V51.232C95.7539 50.736 95.3619 49.824 95.3619 48.496V47.32C95.3619 46.664 95.4739 46.096 95.6979 45.616C95.9379 45.12 96.2659 44.728 96.6819 44.44H96.6579C97.0579 44.168 97.4819 43.968 97.9299 43.84C98.3779 43.696 98.8099 43.624 99.2259 43.624H104.53V41.392C104.53 40.992 104.402 40.632 104.146 40.312C103.906 39.976 103.49 39.808 102.898 39.808H100.09C99.4819 39.808 99.0579 39.96 98.8179 40.264C98.5939 40.552 98.4819 40.896 98.4819 41.296V41.488C98.4819 42.32 98.0339 42.736 97.1379 42.736C96.2419 42.736 95.7939 42.32 95.7939 41.488V41.272C95.7939 40.616 95.9059 40.064 96.1299 39.616C96.3699 39.168 96.6899 38.792 97.0899 38.488H97.0659C97.4819 38.216 97.9139 37.992 98.3619 37.816C98.8259 37.64 99.2659 37.552 99.6819 37.552H103.33C103.73 37.552 104.154 37.64 104.602 37.816C105.066 37.992 105.498 38.216 105.898 38.488H105.874C106.29 38.792 106.61 39.192 106.834 39.688C107.058 40.168 107.17 40.728 107.17 41.368V50.992C107.17 51.76 106.73 52.144 105.85 52.144C105.674 52.144 105.506 52.136 105.346 52.12C105.202 52.104 105.066 52.064 104.938 52C104.826 51.92 104.73 51.816 104.65 51.688C104.586 51.544 104.554 51.36 104.554 51.136L104.53 45.88H99.6819C99.3299 45.88 99.0579 45.92 98.8659 46C98.6739 46.08 98.5219 46.208 98.4099 46.384C98.2819 46.656 98.1859 46.872 98.1219 47.032C98.0739 47.176 98.0499 47.344 98.0499 47.536V48.472C98.0499 48.888 98.1699 49.208 98.4099 49.432C98.6659 49.64 99.0979 49.744 99.7059 49.744H102.394C102.986 49.744 103.282 50.12 103.282 50.872C103.282 51.192 103.21 51.464 103.066 51.688C102.922 51.896 102.698 52 102.394 52H99.2499ZM115.122 52C114.546 52 114.242 51.624 114.21 50.872C114.21 50.12 114.514 49.744 115.122 49.744H117.546C118.138 49.744 118.554 49.576 118.794 49.24C119.05 48.904 119.178 48.544 119.178 48.16V41.392C119.178 40.992 119.05 40.624 118.794 40.288C118.554 39.936 118.13 39.776 117.522 39.808H112.914V54.232C112.914 54.984 112.474 55.36 111.594 55.36C110.714 55.36 110.274 54.976 110.274 54.208V38.968C110.274 38.408 110.418 38.032 110.706 37.84C110.994 37.648 111.346 37.552 111.762 37.552H117.978C118.394 37.552 118.81 37.624 119.226 37.768C119.658 37.912 120.098 38.112 120.546 38.368C120.93 38.64 121.234 39.024 121.458 39.52C121.698 40 121.818 40.568 121.818 41.224V48.328C121.818 49.64 121.394 50.576 120.546 51.136C119.65 51.712 118.794 52 117.978 52H115.122ZM127.421 50.992C127.421 51.76 126.981 52.144 126.101 52.144C125.189 52.144 124.733 51.76 124.733 50.992V41.056C124.733 39.744 125.125 38.832 125.909 38.32C126.693 37.808 127.597 37.552 128.621 37.552H131.357C131.949 37.552 132.245 37.928 132.245 38.68C132.277 39.432 131.981 39.808 131.357 39.808H128.813C128.237 39.808 127.861 39.92 127.685 40.144C127.509 40.368 127.421 40.68 127.421 41.08V50.992ZM136.986 50.992C136.986 51.76 136.546 52.144 135.666 52.144C134.77 52.144 134.322 51.76 134.322 50.992V38.608C134.322 37.84 134.77 37.456 135.666 37.456C136.546 37.456 136.986 37.84 136.986 38.608V50.992ZM137.49 34.432C137.49 34.944 137.314 35.376 136.962 35.728C136.61 36.08 136.178 36.256 135.666 36.256C135.154 36.256 134.714 36.08 134.346 35.728C133.994 35.376 133.818 34.944 133.818 34.432C133.818 33.904 133.994 33.464 134.346 33.112C134.714 32.76 135.154 32.584 135.666 32.584C136.178 32.584 136.61 32.76 136.962 33.112C137.314 33.464 137.49 33.904 137.49 34.432ZM142.961 50.992C142.961 51.76 142.521 52.144 141.641 52.144C140.761 52.144 140.321 51.76 140.321 50.992V41.344C140.321 40.688 140.425 40.12 140.633 39.64C140.841 39.16 141.169 38.768 141.617 38.464C142.465 37.856 143.313 37.552 144.161 37.552H148.025C148.841 37.552 149.689 37.856 150.569 38.464C151.433 39.072 151.865 40.032 151.865 41.344V50.992C151.865 51.76 151.425 52.144 150.545 52.144C149.665 52.144 149.225 51.76 149.225 50.992V41.56C149.225 41.144 149.097 40.744 148.841 40.36L148.865 40.384C148.657 40 148.233 39.808 147.593 39.808H144.593C143.937 39.808 143.505 40 143.297 40.384C143.073 40.72 142.961 41.112 142.961 41.56V50.992ZM162.77 43.6C163.17 43.6 163.594 43.696 164.042 43.888C164.506 44.064 164.938 44.288 165.338 44.56H165.314C165.73 44.864 166.05 45.256 166.274 45.736C166.498 46.216 166.61 46.792 166.61 47.464V48.184C166.61 49.496 166.178 50.464 165.314 51.088C164.898 51.408 164.474 51.64 164.042 51.784C163.61 51.928 163.186 52 162.77 52H158.69C158.274 52 157.85 51.928 157.418 51.784C156.986 51.64 156.562 51.408 156.146 51.088C155.282 50.48 154.85 49.512 154.85 48.184V47.896C154.85 47.208 155.29 46.872 156.17 46.888C157.066 46.888 157.514 47.224 157.514 47.896V48.16C157.514 48.544 157.634 48.904 157.874 49.24C158.114 49.576 158.538 49.744 159.146 49.744H162.314C162.922 49.744 163.346 49.576 163.586 49.24C163.826 48.904 163.946 48.544 163.946 48.16V47.488C163.946 47.28 163.914 47.08 163.85 46.888C163.802 46.696 163.714 46.528 163.586 46.384C163.458 46.224 163.29 46.096 163.082 46C162.874 45.904 162.618 45.856 162.314 45.856H158.81C157.994 45.856 157.138 45.568 156.242 44.992C155.394 44.448 154.97 43.512 154.97 42.184V41.368C154.97 40.728 155.082 40.168 155.306 39.688C155.53 39.192 155.85 38.792 156.266 38.488H156.242C156.642 38.216 157.066 37.992 157.514 37.816C157.962 37.64 158.394 37.552 158.81 37.552H162.65C163.066 37.552 163.49 37.64 163.922 37.816C164.37 37.992 164.802 38.216 165.218 38.488H165.194C165.61 38.792 165.93 39.192 166.154 39.688C166.378 40.168 166.49 40.728 166.49 41.368V41.584C166.49 41.92 166.378 42.168 166.154 42.328C165.93 42.472 165.602 42.552 165.17 42.568C164.29 42.584 163.85 42.256 163.85 41.584V41.392C163.85 40.992 163.722 40.632 163.466 40.312C163.226 39.976 162.81 39.808 162.218 39.808H159.242C158.65 39.808 158.226 39.976 157.97 40.312C157.73 40.632 157.61 40.992 157.61 41.392V41.968C157.61 42.384 157.73 42.76 157.97 43.096C158.226 43.432 158.65 43.6 159.242 43.6H162.77ZM181.279 48.184C181.279 48.824 181.167 49.392 180.943 49.888C180.719 50.384 180.399 50.784 179.983 51.088H180.007C179.607 51.36 179.183 51.584 178.735 51.76C178.287 51.92 177.855 52 177.439 52H173.575C173.175 52 172.743 51.92 172.279 51.76C171.831 51.584 171.407 51.36 171.007 51.088H171.031C170.615 50.784 170.295 50.384 170.071 49.888C169.847 49.392 169.735 48.824 169.735 48.184V38.56C169.735 37.792 170.175 37.408 171.055 37.408C171.935 37.408 172.375 37.792 172.375 38.56V47.992C172.375 48.44 172.487 48.832 172.711 49.168C172.919 49.552 173.351 49.744 174.007 49.744H177.007C177.647 49.744 178.071 49.552 178.279 49.168L178.255 49.192C178.511 48.808 178.639 48.408 178.639 47.992V38.56C178.639 37.792 179.079 37.408 179.959 37.408C180.839 37.408 181.279 37.792 181.279 38.56V48.184ZM191.73 41.56C191.73 41.352 191.698 41.152 191.634 40.96C191.57 40.752 191.49 40.56 191.394 40.384C191.186 40 190.754 39.808 190.098 39.808H188.562C187.906 39.808 187.466 40 187.242 40.384C187.05 40.752 186.954 41.144 186.954 41.56V51.064C186.954 51.816 186.514 52.192 185.634 52.192C184.722 52.192 184.266 51.816 184.266 51.064V41.344C184.266 40.032 184.698 39.072 185.562 38.464C186.442 37.856 187.298 37.552 188.13 37.552H190.554C190.922 37.552 191.33 37.624 191.778 37.768C192.226 37.912 192.658 38.136 193.074 38.44C193.474 38.136 193.89 37.912 194.322 37.768C194.77 37.624 195.194 37.552 195.594 37.552H197.994C198.842 37.552 199.69 37.856 200.538 38.464C201.418 39.056 201.858 40.016 201.858 41.344V51.064C201.858 51.816 201.41 52.192 200.514 52.192C199.618 52.192 199.17 51.816 199.17 51.064V41.56C199.17 41.352 199.146 41.144 199.098 40.936C199.05 40.728 198.962 40.536 198.834 40.36L198.858 40.384C198.73 40.176 198.57 40.032 198.378 39.952C198.186 39.856 197.906 39.808 197.538 39.808H196.026C195.354 39.808 194.914 40 194.706 40.384C194.498 40.736 194.394 41.128 194.394 41.56V51.064C194.394 51.816 193.954 52.192 193.074 52.192C192.178 52.192 191.73 51.816 191.73 51.064V41.56ZM212.454 37.552C212.87 37.552 213.294 37.64 213.726 37.816C214.174 37.992 214.606 38.216 215.022 38.488H214.998C215.414 38.792 215.734 39.192 215.958 39.688C216.182 40.168 216.294 40.728 216.294 41.368V48.184C216.294 49.496 215.862 50.464 214.998 51.088C214.15 51.696 213.302 52 212.454 52H208.614C208.198 52 207.774 51.928 207.342 51.784C206.91 51.64 206.486 51.408 206.07 51.088C205.206 50.48 204.774 49.512 204.774 48.184V41.368C204.774 40.728 204.886 40.168 205.11 39.688C205.334 39.192 205.654 38.792 206.07 38.488H206.046C206.446 38.216 206.87 37.992 207.318 37.816C207.766 37.64 208.198 37.552 208.614 37.552H212.454ZM212.022 49.744C212.614 49.744 213.03 49.576 213.27 49.24C213.526 48.904 213.654 48.544 213.654 48.16V41.392C213.654 40.992 213.526 40.632 213.27 40.312C213.03 39.976 212.614 39.808 212.022 39.808H209.046C208.454 39.808 208.03 39.976 207.774 40.312C207.534 40.632 207.414 40.992 207.414 41.392V48.16C207.414 48.544 207.534 48.904 207.774 49.24C208.03 49.576 208.454 49.744 209.046 49.744H212.022ZM227.129 43.6C227.529 43.6 227.953 43.696 228.401 43.888C228.865 44.064 229.297 44.288 229.697 44.56H229.673C230.089 44.864 230.409 45.256 230.633 45.736C230.857 46.216 230.969 46.792 230.969 47.464V48.184C230.969 49.496 230.537 50.464 229.673 51.088C229.257 51.408 228.833 51.64 228.401 51.784C227.969 51.928 227.545 52 227.129 52H223.049C222.633 52 222.209 51.928 221.777 51.784C221.345 51.64 220.921 51.408 220.505 51.088C219.641 50.48 219.209 49.512 219.209 48.184V47.896C219.209 47.208 219.649 46.872 220.529 46.888C221.425 46.888 221.873 47.224 221.873 47.896V48.16C221.873 48.544 221.993 48.904 222.233 49.24C222.473 49.576 222.897 49.744 223.505 49.744H226.673C227.281 49.744 227.705 49.576 227.945 49.24C228.185 48.904 228.305 48.544 228.305 48.16V47.488C228.305 47.28 228.273 47.08 228.209 46.888C228.161 46.696 228.073 46.528 227.945 46.384C227.817 46.224 227.649 46.096 227.441 46C227.233 45.904 226.977 45.856 226.673 45.856H223.169C222.353 45.856 221.497 45.568 220.601 44.992C219.753 44.448 219.329 43.512 219.329 42.184V41.368C219.329 40.728 219.441 40.168 219.665 39.688C219.889 39.192 220.209 38.792 220.625 38.488H220.601C221.001 38.216 221.425 37.992 221.873 37.816C222.321 37.64 222.753 37.552 223.169 37.552H227.009C227.425 37.552 227.849 37.64 228.281 37.816C228.729 37.992 229.161 38.216 229.577 38.488H229.553C229.969 38.792 230.289 39.192 230.513 39.688C230.737 40.168 230.849 40.728 230.849 41.368V41.584C230.849 41.92 230.737 42.168 230.513 42.328C230.289 42.472 229.961 42.552 229.529 42.568C228.649 42.584 228.209 42.256 228.209 41.584V41.392C228.209 40.992 228.081 40.632 227.825 40.312C227.585 39.976 227.169 39.808 226.577 39.808H223.601C223.009 39.808 222.585 39.976 222.329 40.312C222.089 40.632 221.969 40.992 221.969 41.392V41.968C221.969 42.384 222.089 42.76 222.329 43.096C222.585 43.432 223.009 43.6 223.601 43.6H227.129ZM245.154 52.024C244.738 52.024 244.306 51.944 243.858 51.784C243.426 51.608 243.002 51.368 242.586 51.064C242.17 50.744 241.842 50.352 241.602 49.888C241.378 49.408 241.266 48.832 241.266 48.16V46.528C241.266 45.776 241.738 45.4 242.682 45.4C243.626 45.4 244.098 45.776 244.098 46.528V47.968C244.098 48.384 244.218 48.76 244.458 49.096C244.714 49.432 245.138 49.6 245.73 49.6H247.05C247.642 49.6 248.058 49.432 248.298 49.096C248.554 48.76 248.682 48.384 248.682 47.968V45.064C248.682 44.664 248.562 44.296 248.322 43.96C248.082 43.608 247.658 43.432 247.05 43.432H245.346C244.738 43.432 244.434 43.04 244.434 42.256C244.434 41.44 244.738 41.032 245.346 41.032H247.05C247.706 41.032 248.138 40.872 248.346 40.552C248.57 40.216 248.682 39.84 248.682 39.424V36.976C248.682 36.576 248.554 36.208 248.298 35.872C248.058 35.536 247.642 35.368 247.05 35.368H245.73C245.138 35.368 244.714 35.536 244.458 35.872C244.218 36.208 244.098 36.576 244.098 36.976V37.936C244.098 38.688 243.626 39.064 242.682 39.064C241.738 39.064 241.266 38.688 241.266 37.936V36.76C241.266 36.12 241.378 35.56 241.602 35.08C241.842 34.584 242.17 34.184 242.586 33.88H242.562C242.978 33.608 243.41 33.384 243.858 33.208C244.306 33.032 244.738 32.944 245.154 32.944H247.674C248.074 32.944 248.498 33.032 248.946 33.208C249.394 33.384 249.826 33.608 250.242 33.88H250.218C250.634 34.184 250.954 34.584 251.178 35.08C251.402 35.56 251.514 36.12 251.514 36.76V39.616C251.514 40.384 251.37 41 251.082 41.464C250.986 41.592 250.89 41.728 250.794 41.872C250.698 42.016 250.618 42.128 250.554 42.208L250.89 42.784L251.13 43.048C251.386 43.448 251.514 44.056 251.514 44.872V48.16C251.514 48.832 251.402 49.408 251.178 49.888C250.954 50.352 250.634 50.744 250.218 51.064C249.802 51.368 249.378 51.608 248.946 51.784C248.514 51.944 248.09 52.024 247.674 52.024H245.154ZM263.595 49.6C264.187 49.6 264.603 49.432 264.843 49.096C265.083 48.76 265.203 48.384 265.203 47.968V36.976C265.203 36.576 265.083 36.208 264.843 35.872C264.603 35.536 264.187 35.368 263.595 35.368H257.979L257.955 51.016C257.955 51.368 257.819 51.648 257.547 51.856C257.275 52.064 256.939 52.168 256.539 52.168C255.595 52.168 255.123 51.784 255.123 51.016V34.384C255.123 33.808 255.267 33.424 255.555 33.232C255.859 33.04 256.219 32.944 256.635 32.944H264.195C264.611 32.944 265.043 33.032 265.491 33.208C265.939 33.384 266.371 33.608 266.787 33.88H266.763C267.179 34.184 267.499 34.584 267.723 35.08C267.947 35.56 268.059 36.12 268.059 36.76V48.16C268.059 49.456 267.627 50.424 266.763 51.064C266.347 51.368 265.915 51.608 265.467 51.784C265.035 51.944 264.611 52.024 264.195 52.024H260.163C259.891 52.024 259.675 51.912 259.515 51.688C259.371 51.464 259.299 51.168 259.299 50.8C259.299 50 259.643 49.6 260.331 49.6H263.595Z" fill="white"/>
<path d="M54.41 19H31.59C30.9031 19 30.2443 19.2673 29.7586 19.7431C29.2729 20.2189 29 20.8643 29 21.5371V29.6057C29 30.2786 29.2729 30.9239 29.7586 31.3997C30.2443 31.8756 30.9031 32.1429 31.59 32.1429H42.4167V52.4629C42.4167 53.1357 42.6895 53.7811 43.1753 54.2569C43.661 54.7327 44.3198 55 45.0067 55H54.41C55.0969 55 55.7557 54.7327 56.2414 54.2569C56.7271 53.7811 57 53.1357 57 52.4629V21.5371C57 20.8643 56.7271 20.2189 56.2414 19.7431C55.7557 19.2673 55.0969 19 54.41 19Z" fill="white"/>
<path d="M57 10.3764V2.62364C57 1.17464 55.8073 0 54.336 0L44.664 0C43.1927 0 42 1.17464 42 2.62364V10.3764C42 11.8254 43.1927 13 44.664 13H54.336C55.8073 13 57 11.8254 57 10.3764Z" fill="white"/>
<path d="M32.41 36.6667H23.9167V20.8771C23.9167 20.2024 23.6438 19.5554 23.1581 19.0784C22.6724 18.6013 22.0136 18.3333 21.3267 18.3333H15.1667V2.54375C15.1667 1.86911 14.8938 1.22209 14.4081 0.745047C13.9224 0.268001 13.2636 0 12.5767 0H2.59C1.90309 0 1.24431 0.268001 0.758593 0.745047C0.272874 1.22209 0 1.86911 0 2.54375V52.4563C0 53.1309 0.272874 53.7779 0.758593 54.255C1.24431 54.732 1.90309 55 2.59 55H32.41C33.0969 55 33.7557 54.732 34.2414 54.255C34.7271 53.7779 35 53.1309 35 52.4563V39.2104C35 38.5358 34.7271 37.8888 34.2414 37.4117C33.7557 36.9347 33.0969 36.6667 32.41 36.6667Z" fill="white"/>
</svg>
