<svg width="295" height="70" viewBox="0 0 295 70" fill="none" xmlns="http://www.w3.org/2000/svg">
<path d="M69.67 24H40.33C39.4468 24 38.5998 24.3416 37.9753 24.9495C37.3508 25.5575 37 26.3821 37 27.2419V37.5517C37 38.4116 37.3508 39.2361 37.9753 39.8441C38.5998 40.4521 39.4468 40.7937 40.33 40.7937H54.25V66.7581C54.25 67.6179 54.6008 68.4425 55.2253 69.0505C55.8498 69.6584 56.6968 70 57.58 70H69.67C70.5532 70 71.4002 69.6584 72.0247 69.0505C72.6492 68.4425 73 67.6179 73 66.7581V27.2419C73 26.3821 72.6492 25.5575 72.0247 24.9495C71.4002 24.3416 70.5532 24 69.67 24Z" fill="black"/>
<path d="M73 12.7709V3.22909C73 1.44571 71.4892 0 69.6256 0L57.3744 0C55.5108 0 54 1.44571 54 3.22909V12.7709C54 14.5543 55.5108 16 57.3744 16H69.6256C71.4892 16 73 14.5543 73 12.7709Z" fill="black"/>
<path d="M41.67 46.6667H30.75V26.5708C30.75 25.7122 30.3992 24.8887 29.7747 24.2816C29.1502 23.6744 28.3032 23.3333 27.42 23.3333H19.5V3.2375C19.5 2.37886 19.1492 1.55539 18.5247 0.948242C17.9002 0.341093 17.0532 0 16.17 0H3.33C2.44683 0 1.59983 0.341093 0.975334 0.948242C0.350838 1.55539 0 2.37886 0 3.2375V66.7625C0 67.6211 0.350838 68.4446 0.975334 69.0518C1.59983 69.6589 2.44683 70 3.33 70H41.67C42.5532 70 43.4002 69.6589 44.0247 69.0518C44.6492 68.4446 45 67.6211 45 66.7625V49.9042C45 49.0455 44.6492 48.2221 44.0247 47.6149C43.4002 47.0078 42.5532 46.6667 41.67 46.6667Z" fill="black"/>
<path d="M101.432 44.024C100.84 44.024 100.44 43.872 100.232 43.568C100.024 43.264 99.92 42.928 99.92 42.56V25.976C99.92 25.208 100.384 24.824 101.312 24.824C102.272 24.824 102.752 25.208 102.752 25.976V41.6H110.768C111.344 41.6 111.632 41.992 111.632 42.776C111.664 43.608 111.376 44.024 110.768 44.024H101.432ZM117.75 44C117.254 44 116.782 43.936 116.334 43.808C115.886 43.664 115.454 43.464 115.038 43.208V43.232C114.254 42.736 113.862 41.824 113.862 40.496V39.32C113.862 38.664 113.974 38.096 114.198 37.616C114.438 37.12 114.766 36.728 115.182 36.44H115.158C115.558 36.168 115.982 35.968 116.43 35.84C116.878 35.696 117.31 35.624 117.726 35.624H123.03V33.392C123.03 32.992 122.902 32.632 122.646 32.312C122.406 31.976 121.99 31.808 121.398 31.808H118.59C117.982 31.808 117.558 31.96 117.318 32.264C117.094 32.552 116.982 32.896 116.982 33.296V33.488C116.982 34.32 116.534 34.736 115.638 34.736C114.742 34.736 114.294 34.32 114.294 33.488V33.272C114.294 32.616 114.406 32.064 114.63 31.616C114.87 31.168 115.19 30.792 115.59 30.488H115.566C115.982 30.216 116.414 29.992 116.862 29.816C117.326 29.64 117.766 29.552 118.182 29.552H121.83C122.23 29.552 122.654 29.64 123.102 29.816C123.566 29.992 123.998 30.216 124.398 30.488H124.374C124.79 30.792 125.11 31.192 125.334 31.688C125.558 32.168 125.67 32.728 125.67 33.368V42.992C125.67 43.76 125.23 44.144 124.35 44.144C124.174 44.144 124.006 44.136 123.846 44.12C123.702 44.104 123.566 44.064 123.438 44C123.326 43.92 123.23 43.816 123.15 43.688C123.086 43.544 123.054 43.36 123.054 43.136L123.03 37.88H118.182C117.83 37.88 117.558 37.92 117.366 38C117.174 38.08 117.022 38.208 116.91 38.384C116.782 38.656 116.686 38.872 116.622 39.032C116.574 39.176 116.55 39.344 116.55 39.536V40.472C116.55 40.888 116.67 41.208 116.91 41.432C117.166 41.64 117.598 41.744 118.206 41.744H120.894C121.486 41.744 121.782 42.12 121.782 42.872C121.782 43.192 121.71 43.464 121.566 43.688C121.422 43.896 121.198 44 120.894 44H117.75ZM134.122 44C133.546 44 133.242 43.624 133.21 42.872C133.21 42.12 133.514 41.744 134.122 41.744H136.546C137.138 41.744 137.554 41.576 137.794 41.24C138.05 40.904 138.178 40.544 138.178 40.16V33.392C138.178 32.992 138.05 32.624 137.794 32.288C137.554 31.936 137.13 31.776 136.522 31.808H131.914V46.232C131.914 46.984 131.474 47.36 130.594 47.36C129.714 47.36 129.274 46.976 129.274 46.208V30.968C129.274 30.408 129.418 30.032 129.706 29.84C129.994 29.648 130.346 29.552 130.762 29.552H136.978C137.394 29.552 137.81 29.624 138.226 29.768C138.658 29.912 139.098 30.112 139.546 30.368C139.93 30.64 140.234 31.024 140.458 31.52C140.698 32 140.818 32.568 140.818 33.224V40.328C140.818 41.64 140.394 42.576 139.546 43.136C138.65 43.712 137.794 44 136.978 44H134.122ZM146.921 42.992C146.921 43.76 146.481 44.144 145.601 44.144C144.689 44.144 144.233 43.76 144.233 42.992V33.056C144.233 31.744 144.625 30.832 145.409 30.32C146.193 29.808 147.097 29.552 148.121 29.552H150.857C151.449 29.552 151.745 29.928 151.745 30.68C151.777 31.432 151.481 31.808 150.857 31.808H148.313C147.737 31.808 147.361 31.92 147.185 32.144C147.009 32.368 146.921 32.68 146.921 33.08V42.992ZM156.986 42.992C156.986 43.76 156.546 44.144 155.666 44.144C154.77 44.144 154.322 43.76 154.322 42.992V30.608C154.322 29.84 154.77 29.456 155.666 29.456C156.546 29.456 156.986 29.84 156.986 30.608V42.992ZM157.49 26.432C157.49 26.944 157.314 27.376 156.962 27.728C156.61 28.08 156.178 28.256 155.666 28.256C155.154 28.256 154.714 28.08 154.346 27.728C153.994 27.376 153.818 26.944 153.818 26.432C153.818 25.904 153.994 25.464 154.346 25.112C154.714 24.76 155.154 24.584 155.666 24.584C156.178 24.584 156.61 24.76 156.962 25.112C157.314 25.464 157.49 25.904 157.49 26.432ZM163.461 42.992C163.461 43.76 163.021 44.144 162.141 44.144C161.261 44.144 160.821 43.76 160.821 42.992V33.344C160.821 32.688 160.925 32.12 161.133 31.64C161.341 31.16 161.669 30.768 162.117 30.464C162.965 29.856 163.813 29.552 164.661 29.552H168.525C169.341 29.552 170.189 29.856 171.069 30.464C171.933 31.072 172.365 32.032 172.365 33.344V42.992C172.365 43.76 171.925 44.144 171.045 44.144C170.165 44.144 169.725 43.76 169.725 42.992V33.56C169.725 33.144 169.597 32.744 169.341 32.36L169.365 32.384C169.157 32 168.733 31.808 168.093 31.808H165.093C164.437 31.808 164.005 32 163.797 32.384C163.573 32.72 163.461 33.112 163.461 33.56V42.992ZM183.77 35.6C184.17 35.6 184.594 35.696 185.042 35.888C185.506 36.064 185.938 36.288 186.338 36.56H186.314C186.73 36.864 187.05 37.256 187.274 37.736C187.498 38.216 187.61 38.792 187.61 39.464V40.184C187.61 41.496 187.178 42.464 186.314 43.088C185.898 43.408 185.474 43.64 185.042 43.784C184.61 43.928 184.186 44 183.77 44H179.69C179.274 44 178.85 43.928 178.418 43.784C177.986 43.64 177.562 43.408 177.146 43.088C176.282 42.48 175.85 41.512 175.85 40.184V39.896C175.85 39.208 176.29 38.872 177.17 38.888C178.066 38.888 178.514 39.224 178.514 39.896V40.16C178.514 40.544 178.634 40.904 178.874 41.24C179.114 41.576 179.538 41.744 180.146 41.744H183.314C183.922 41.744 184.346 41.576 184.586 41.24C184.826 40.904 184.946 40.544 184.946 40.16V39.488C184.946 39.28 184.914 39.08 184.85 38.888C184.802 38.696 184.714 38.528 184.586 38.384C184.458 38.224 184.29 38.096 184.082 38C183.874 37.904 183.618 37.856 183.314 37.856H179.81C178.994 37.856 178.138 37.568 177.242 36.992C176.394 36.448 175.97 35.512 175.97 34.184V33.368C175.97 32.728 176.082 32.168 176.306 31.688C176.53 31.192 176.85 30.792 177.266 30.488H177.242C177.642 30.216 178.066 29.992 178.514 29.816C178.962 29.64 179.394 29.552 179.81 29.552H183.65C184.066 29.552 184.49 29.64 184.922 29.816C185.37 29.992 185.802 30.216 186.218 30.488H186.194C186.61 30.792 186.93 31.192 187.154 31.688C187.378 32.168 187.49 32.728 187.49 33.368V33.584C187.49 33.92 187.378 34.168 187.154 34.328C186.93 34.472 186.602 34.552 186.17 34.568C185.29 34.584 184.85 34.256 184.85 33.584V33.392C184.85 32.992 184.722 32.632 184.466 32.312C184.226 31.976 183.81 31.808 183.218 31.808H180.242C179.65 31.808 179.226 31.976 178.97 32.312C178.73 32.632 178.61 32.992 178.61 33.392V33.968C178.61 34.384 178.73 34.76 178.97 35.096C179.226 35.432 179.65 35.6 180.242 35.6H183.77ZM202.779 40.184C202.779 40.824 202.667 41.392 202.443 41.888C202.219 42.384 201.899 42.784 201.483 43.088H201.507C201.107 43.36 200.683 43.584 200.235 43.76C199.787 43.92 199.355 44 198.939 44H195.075C194.675 44 194.243 43.92 193.779 43.76C193.331 43.584 192.907 43.36 192.507 43.088H192.531C192.115 42.784 191.795 42.384 191.571 41.888C191.347 41.392 191.235 40.824 191.235 40.184V30.56C191.235 29.792 191.675 29.408 192.555 29.408C193.435 29.408 193.875 29.792 193.875 30.56V39.992C193.875 40.44 193.987 40.832 194.211 41.168C194.419 41.552 194.851 41.744 195.507 41.744H198.507C199.147 41.744 199.571 41.552 199.779 41.168L199.755 41.192C200.011 40.808 200.139 40.408 200.139 39.992V30.56C200.139 29.792 200.579 29.408 201.459 29.408C202.339 29.408 202.779 29.792 202.779 30.56V40.184ZM213.73 33.56C213.73 33.352 213.698 33.152 213.634 32.96C213.57 32.752 213.49 32.56 213.394 32.384C213.186 32 212.754 31.808 212.098 31.808H210.562C209.906 31.808 209.466 32 209.242 32.384C209.05 32.752 208.954 33.144 208.954 33.56V43.064C208.954 43.816 208.514 44.192 207.634 44.192C206.722 44.192 206.266 43.816 206.266 43.064V33.344C206.266 32.032 206.698 31.072 207.562 30.464C208.442 29.856 209.298 29.552 210.13 29.552H212.554C212.922 29.552 213.33 29.624 213.778 29.768C214.226 29.912 214.658 30.136 215.074 30.44C215.474 30.136 215.89 29.912 216.322 29.768C216.77 29.624 217.194 29.552 217.594 29.552H219.994C220.842 29.552 221.69 29.856 222.538 30.464C223.418 31.056 223.858 32.016 223.858 33.344V43.064C223.858 43.816 223.41 44.192 222.514 44.192C221.618 44.192 221.17 43.816 221.17 43.064V33.56C221.17 33.352 221.146 33.144 221.098 32.936C221.05 32.728 220.962 32.536 220.834 32.36L220.858 32.384C220.73 32.176 220.57 32.032 220.378 31.952C220.186 31.856 219.906 31.808 219.538 31.808H218.026C217.354 31.808 216.914 32 216.706 32.384C216.498 32.736 216.394 33.128 216.394 33.56V43.064C216.394 43.816 215.954 44.192 215.074 44.192C214.178 44.192 213.73 43.816 213.73 43.064V33.56ZM234.954 29.552C235.37 29.552 235.794 29.64 236.226 29.816C236.674 29.992 237.106 30.216 237.522 30.488H237.498C237.914 30.792 238.234 31.192 238.458 31.688C238.682 32.168 238.794 32.728 238.794 33.368V40.184C238.794 41.496 238.362 42.464 237.498 43.088C236.65 43.696 235.802 44 234.954 44H231.114C230.698 44 230.274 43.928 229.842 43.784C229.41 43.64 228.986 43.408 228.57 43.088C227.706 42.48 227.274 41.512 227.274 40.184V33.368C227.274 32.728 227.386 32.168 227.61 31.688C227.834 31.192 228.154 30.792 228.57 30.488H228.546C228.946 30.216 229.37 29.992 229.818 29.816C230.266 29.64 230.698 29.552 231.114 29.552H234.954ZM234.522 41.744C235.114 41.744 235.53 41.576 235.77 41.24C236.026 40.904 236.154 40.544 236.154 40.16V33.392C236.154 32.992 236.026 32.632 235.77 32.312C235.53 31.976 235.114 31.808 234.522 31.808H231.546C230.954 31.808 230.53 31.976 230.274 32.312C230.034 32.632 229.914 32.992 229.914 33.392V40.16C229.914 40.544 230.034 40.904 230.274 41.24C230.53 41.576 230.954 41.744 231.546 41.744H234.522ZM250.129 35.6C250.529 35.6 250.953 35.696 251.401 35.888C251.865 36.064 252.297 36.288 252.697 36.56H252.673C253.089 36.864 253.409 37.256 253.633 37.736C253.857 38.216 253.969 38.792 253.969 39.464V40.184C253.969 41.496 253.537 42.464 252.673 43.088C252.257 43.408 251.833 43.64 251.401 43.784C250.969 43.928 250.545 44 250.129 44H246.049C245.633 44 245.209 43.928 244.777 43.784C244.345 43.64 243.921 43.408 243.505 43.088C242.641 42.48 242.209 41.512 242.209 40.184V39.896C242.209 39.208 242.649 38.872 243.529 38.888C244.425 38.888 244.873 39.224 244.873 39.896V40.16C244.873 40.544 244.993 40.904 245.233 41.24C245.473 41.576 245.897 41.744 246.505 41.744H249.673C250.281 41.744 250.705 41.576 250.945 41.24C251.185 40.904 251.305 40.544 251.305 40.16V39.488C251.305 39.28 251.273 39.08 251.209 38.888C251.161 38.696 251.073 38.528 250.945 38.384C250.817 38.224 250.649 38.096 250.441 38C250.233 37.904 249.977 37.856 249.673 37.856H246.169C245.353 37.856 244.497 37.568 243.601 36.992C242.753 36.448 242.329 35.512 242.329 34.184V33.368C242.329 32.728 242.441 32.168 242.665 31.688C242.889 31.192 243.209 30.792 243.625 30.488H243.601C244.001 30.216 244.425 29.992 244.873 29.816C245.321 29.64 245.753 29.552 246.169 29.552H250.009C250.425 29.552 250.849 29.64 251.281 29.816C251.729 29.992 252.161 30.216 252.577 30.488H252.553C252.969 30.792 253.289 31.192 253.513 31.688C253.737 32.168 253.849 32.728 253.849 33.368V33.584C253.849 33.92 253.737 34.168 253.513 34.328C253.289 34.472 252.961 34.552 252.529 34.568C251.649 34.584 251.209 34.256 251.209 33.584V33.392C251.209 32.992 251.081 32.632 250.825 32.312C250.585 31.976 250.169 31.808 249.577 31.808H246.601C246.009 31.808 245.585 31.976 245.329 32.312C245.089 32.632 244.969 32.992 244.969 33.392V33.968C244.969 34.384 245.089 34.76 245.329 35.096C245.585 35.432 246.009 35.6 246.601 35.6H250.129ZM269.154 44.024C268.738 44.024 268.306 43.944 267.858 43.784C267.426 43.608 267.002 43.368 266.586 43.064C266.17 42.744 265.842 42.352 265.602 41.888C265.378 41.408 265.266 40.832 265.266 40.16V38.528C265.266 37.776 265.738 37.4 266.682 37.4C267.626 37.4 268.098 37.776 268.098 38.528V39.968C268.098 40.384 268.218 40.76 268.458 41.096C268.714 41.432 269.138 41.6 269.73 41.6H271.05C271.642 41.6 272.058 41.432 272.298 41.096C272.554 40.76 272.682 40.384 272.682 39.968V37.064C272.682 36.664 272.562 36.296 272.322 35.96C272.082 35.608 271.658 35.432 271.05 35.432H269.346C268.738 35.432 268.434 35.04 268.434 34.256C268.434 33.44 268.738 33.032 269.346 33.032H271.05C271.706 33.032 272.138 32.872 272.346 32.552C272.57 32.216 272.682 31.84 272.682 31.424V28.976C272.682 28.576 272.554 28.208 272.298 27.872C272.058 27.536 271.642 27.368 271.05 27.368H269.73C269.138 27.368 268.714 27.536 268.458 27.872C268.218 28.208 268.098 28.576 268.098 28.976V29.936C268.098 30.688 267.626 31.064 266.682 31.064C265.738 31.064 265.266 30.688 265.266 29.936V28.76C265.266 28.12 265.378 27.56 265.602 27.08C265.842 26.584 266.17 26.184 266.586 25.88H266.562C266.978 25.608 267.41 25.384 267.858 25.208C268.306 25.032 268.738 24.944 269.154 24.944H271.674C272.074 24.944 272.498 25.032 272.946 25.208C273.394 25.384 273.826 25.608 274.242 25.88H274.218C274.634 26.184 274.954 26.584 275.178 27.08C275.402 27.56 275.514 28.12 275.514 28.76V31.616C275.514 32.384 275.37 33 275.082 33.464C274.986 33.592 274.89 33.728 274.794 33.872C274.698 34.016 274.618 34.128 274.554 34.208L274.89 34.784L275.13 35.048C275.386 35.448 275.514 36.056 275.514 36.872V40.16C275.514 40.832 275.402 41.408 275.178 41.888C274.954 42.352 274.634 42.744 274.218 43.064C273.802 43.368 273.378 43.608 272.946 43.784C272.514 43.944 272.09 44.024 271.674 44.024H269.154ZM288.095 41.6C288.687 41.6 289.103 41.432 289.343 41.096C289.583 40.76 289.703 40.384 289.703 39.968V28.976C289.703 28.576 289.583 28.208 289.343 27.872C289.103 27.536 288.687 27.368 288.095 27.368H282.479L282.455 43.016C282.455 43.368 282.319 43.648 282.047 43.856C281.775 44.064 281.439 44.168 281.039 44.168C280.095 44.168 279.623 43.784 279.623 43.016V26.384C279.623 25.808 279.767 25.424 280.055 25.232C280.359 25.04 280.719 24.944 281.135 24.944H288.695C289.111 24.944 289.543 25.032 289.991 25.208C290.439 25.384 290.871 25.608 291.287 25.88H291.263C291.679 26.184 291.999 26.584 292.223 27.08C292.447 27.56 292.559 28.12 292.559 28.76V40.16C292.559 41.456 292.127 42.424 291.263 43.064C290.847 43.368 290.415 43.608 289.967 43.784C289.535 43.944 289.111 44.024 288.695 44.024H284.663C284.391 44.024 284.175 43.912 284.015 43.688C283.871 43.464 283.799 43.168 283.799 42.8C283.799 42 284.143 41.6 284.831 41.6H288.095Z" fill="black"/>
</svg>
