<svg width="1920" height="487" viewBox="0 0 1920 487" fill="none" xmlns="http://www.w3.org/2000/svg">
<path fill-rule="evenodd" clip-rule="evenodd" d="M0 242C67.0708 193.35 110.159 170.276 242.328 145.95C374.497 121.625 504.694 170.276 636.863 182.438C769.032 194.601 899.228 170.276 1031.4 194.601C1163.57 218.926 1293.76 291.901 1425.93 364.876C1558.1 437.851 1682.83 496.663 1815 484.5C1939.5 473.043 1917 484.5 1920.5 448.5V322.5V0H1859C1791.93 0 1952.63 0 1820.47 0C1688.3 0 1558.1 0 1425.93 0C1293.76 0 1163.57 0 1031.4 0C899.228 0 769.032 0 636.863 0C504.694 0 374.497 0 242.328 0C110.159 0 67.0708 0 0 0V242Z" fill="#EDC0ED"/>
</svg>
